<svg class="rich-terminal" viewBox="0 0 1482 1026.0" xmlns="http://www.w3.org/2000/svg">
    <!-- Generated with Rich https://www.textualize.io -->
    <style>

    @font-face {
        font-family: "Fira Code";
        src: local("FiraCode-Regular"),
                url("https://cdnjs.cloudflare.com/ajax/libs/firacode/6.2.0/woff2/FiraCode-Regular.woff2") format("woff2"),
                url("https://cdnjs.cloudflare.com/ajax/libs/firacode/6.2.0/woff/FiraCode-Regular.woff") format("woff");
        font-style: normal;
        font-weight: 400;
    }
    @font-face {
        font-family: "Fira Code";
        src: local("FiraCode-Bold"),
                url("https://cdnjs.cloudflare.com/ajax/libs/firacode/6.2.0/woff2/FiraCode-Bold.woff2") format("woff2"),
                url("https://cdnjs.cloudflare.com/ajax/libs/firacode/6.2.0/woff/FiraCode-Bold.woff") format("woff");
        font-style: bold;
        font-weight: 700;
    }

    .terminal-ID-matrix {
        font-family: Fira Code, monospace;
        font-size: 20px;
        line-height: 24.4px;
        font-variant-east-asian: full-width;
    }

    .terminal-ID-title {
        font-size: 18px;
        font-weight: bold;
        font-family: arial;
    }

    .terminal-ID-r1 { fill: #ffffff;font-weight: bold }
.terminal-ID-r2 { fill: #c5c8c6 }
.terminal-ID-r3 { fill: #ffffff;font-weight: bold;text-decoration: underline; }
.terminal-ID-r4 { fill: #ffffff }
.terminal-ID-r5 { fill: #4c4c4c;font-weight: bold }
.terminal-ID-r6 { fill: #000000;font-weight: bold }
    </style>

    <defs>
    <clipPath id="terminal-ID-clip-terminal">
      <rect x="0" y="0" width="1463.0" height="975.0" />
    </clipPath>
    <clipPath id="terminal-ID-line-0">
    <rect x="0" y="1.5" width="1464" height="24.65"/>
            </clipPath>
<clipPath id="terminal-ID-line-1">
    <rect x="0" y="25.9" width="1464" height="24.65"/>
            </clipPath>
<clipPath id="terminal-ID-line-2">
    <rect x="0" y="50.3" width="1464" height="24.65"/>
            </clipPath>
<clipPath id="terminal-ID-line-3">
    <rect x="0" y="74.7" width="1464" height="24.65"/>
            </clipPath>
<clipPath id="terminal-ID-line-4">
    <rect x="0" y="99.1" width="1464" height="24.65"/>
            </clipPath>
<clipPath id="terminal-ID-line-5">
    <rect x="0" y="123.5" width="1464" height="24.65"/>
            </clipPath>
<clipPath id="terminal-ID-line-6">
    <rect x="0" y="147.9" width="1464" height="24.65"/>
            </clipPath>
<clipPath id="terminal-ID-line-7">
    <rect x="0" y="172.3" width="1464" height="24.65"/>
            </clipPath>
<clipPath id="terminal-ID-line-8">
    <rect x="0" y="196.7" width="1464" height="24.65"/>
            </clipPath>
<clipPath id="terminal-ID-line-9">
    <rect x="0" y="221.1" width="1464" height="24.65"/>
            </clipPath>
<clipPath id="terminal-ID-line-10">
    <rect x="0" y="245.5" width="1464" height="24.65"/>
            </clipPath>
<clipPath id="terminal-ID-line-11">
    <rect x="0" y="269.9" width="1464" height="24.65"/>
            </clipPath>
<clipPath id="terminal-ID-line-12">
    <rect x="0" y="294.3" width="1464" height="24.65"/>
            </clipPath>
<clipPath id="terminal-ID-line-13">
    <rect x="0" y="318.7" width="1464" height="24.65"/>
            </clipPath>
<clipPath id="terminal-ID-line-14">
    <rect x="0" y="343.1" width="1464" height="24.65"/>
            </clipPath>
<clipPath id="terminal-ID-line-15">
    <rect x="0" y="367.5" width="1464" height="24.65"/>
            </clipPath>
<clipPath id="terminal-ID-line-16">
    <rect x="0" y="391.9" width="1464" height="24.65"/>
            </clipPath>
<clipPath id="terminal-ID-line-17">
    <rect x="0" y="416.3" width="1464" height="24.65"/>
            </clipPath>
<clipPath id="terminal-ID-line-18">
    <rect x="0" y="440.7" width="1464" height="24.65"/>
            </clipPath>
<clipPath id="terminal-ID-line-19">
    <rect x="0" y="465.1" width="1464" height="24.65"/>
            </clipPath>
<clipPath id="terminal-ID-line-20">
    <rect x="0" y="489.5" width="1464" height="24.65"/>
            </clipPath>
<clipPath id="terminal-ID-line-21">
    <rect x="0" y="513.9" width="1464" height="24.65"/>
            </clipPath>
<clipPath id="terminal-ID-line-22">
    <rect x="0" y="538.3" width="1464" height="24.65"/>
            </clipPath>
<clipPath id="terminal-ID-line-23">
    <rect x="0" y="562.7" width="1464" height="24.65"/>
            </clipPath>
<clipPath id="terminal-ID-line-24">
    <rect x="0" y="587.1" width="1464" height="24.65"/>
            </clipPath>
<clipPath id="terminal-ID-line-25">
    <rect x="0" y="611.5" width="1464" height="24.65"/>
            </clipPath>
<clipPath id="terminal-ID-line-26">
    <rect x="0" y="635.9" width="1464" height="24.65"/>
            </clipPath>
<clipPath id="terminal-ID-line-27">
    <rect x="0" y="660.3" width="1464" height="24.65"/>
            </clipPath>
<clipPath id="terminal-ID-line-28">
    <rect x="0" y="684.7" width="1464" height="24.65"/>
            </clipPath>
<clipPath id="terminal-ID-line-29">
    <rect x="0" y="709.1" width="1464" height="24.65"/>
            </clipPath>
<clipPath id="terminal-ID-line-30">
    <rect x="0" y="733.5" width="1464" height="24.65"/>
            </clipPath>
<clipPath id="terminal-ID-line-31">
    <rect x="0" y="757.9" width="1464" height="24.65"/>
            </clipPath>
<clipPath id="terminal-ID-line-32">
    <rect x="0" y="782.3" width="1464" height="24.65"/>
            </clipPath>
<clipPath id="terminal-ID-line-33">
    <rect x="0" y="806.7" width="1464" height="24.65"/>
            </clipPath>
<clipPath id="terminal-ID-line-34">
    <rect x="0" y="831.1" width="1464" height="24.65"/>
            </clipPath>
<clipPath id="terminal-ID-line-35">
    <rect x="0" y="855.5" width="1464" height="24.65"/>
            </clipPath>
<clipPath id="terminal-ID-line-36">
    <rect x="0" y="879.9" width="1464" height="24.65"/>
            </clipPath>
<clipPath id="terminal-ID-line-37">
    <rect x="0" y="904.3" width="1464" height="24.65"/>
            </clipPath>
<clipPath id="terminal-ID-line-38">
    <rect x="0" y="928.7" width="1464" height="24.65"/>
            </clipPath>
    </defs>

    <rect fill="#292929" stroke="rgba(255,255,255,0.35)" stroke-width="1" x="1" y="1" width="1480" height="1024" rx="8"/><text class="terminal-ID-title" fill="#c5c8c6" text-anchor="middle" x="740" y="27">Policy&#160;Editor</text>
            <g transform="translate(26,22)">
            <circle cx="0" cy="0" r="7" fill="#ff5f57"/>
            <circle cx="22" cy="0" r="7" fill="#febc2e"/>
            <circle cx="44" cy="0" r="7" fill="#28c840"/>
            </g>
        
    <g transform="translate(9, 41)" clip-path="url(#terminal-ID-clip-terminal)">
    <rect fill="#000000" x="0" y="1.5" width="268.4" height="24.65" shape-rendering="crispEdges"/><rect fill="#000000" x="268.4" y="1.5" width="1195.6" height="24.65" shape-rendering="crispEdges"/><rect fill="#000000" x="0" y="25.9" width="12.2" height="24.65" shape-rendering="crispEdges"/><rect fill="#000000" x="12.2" y="25.9" width="207.4" height="24.65" shape-rendering="crispEdges"/><rect fill="#000000" x="219.6" y="25.9" width="1244.4" height="24.65" shape-rendering="crispEdges"/><rect fill="#000000" x="0" y="50.3" width="12.2" height="24.65" shape-rendering="crispEdges"/><rect fill="#000000" x="12.2" y="50.3" width="85.4" height="24.65" shape-rendering="crispEdges"/><rect fill="#000000" x="97.6" y="50.3" width="1366.4" height="24.65" shape-rendering="crispEdges"/><rect fill="#000000" x="0" y="74.7" width="1464" height="24.65" shape-rendering="crispEdges"/><rect fill="#000000" x="0" y="99.1" width="1464" height="24.65" shape-rendering="crispEdges"/><rect fill="#000000" x="0" y="123.5" width="1464" height="24.65" shape-rendering="crispEdges"/><rect fill="#000000" x="0" y="147.9" width="1464" height="24.65" shape-rendering="crispEdges"/><rect fill="#000000" x="0" y="172.3" width="1464" height="24.65" shape-rendering="crispEdges"/><rect fill="#000000" x="0" y="196.7" width="1464" height="24.65" shape-rendering="crispEdges"/><rect fill="#000000" x="0" y="221.1" width="12.2" height="24.65" shape-rendering="crispEdges"/><rect fill="#000000" x="12.2" y="221.1" width="292.8" height="24.65" shape-rendering="crispEdges"/><rect fill="#000000" x="305" y="221.1" width="805.2" height="24.65" shape-rendering="crispEdges"/><rect fill="#000000" x="1110.2" y="221.1" width="353.8" height="24.65" shape-rendering="crispEdges"/><rect fill="#000000" x="0" y="245.5" width="12.2" height="24.65" shape-rendering="crispEdges"/><rect fill="#000000" x="12.2" y="245.5" width="0" height="24.65" shape-rendering="crispEdges"/><rect fill="#000000" x="12.2" y="245.5" width="1451.8" height="24.65" shape-rendering="crispEdges"/><rect fill="#000000" x="0" y="269.9" width="122" height="24.65" shape-rendering="crispEdges"/><rect fill="#000000" x="122" y="269.9" width="1342" height="24.65" shape-rendering="crispEdges"/><rect fill="#000000" x="0" y="294.3" width="48.8" height="24.65" shape-rendering="crispEdges"/><rect fill="#000000" x="48.8" y="294.3" width="97.6" height="24.65" shape-rendering="crispEdges"/><rect fill="#000000" x="146.4" y="294.3" width="122" height="24.65" shape-rendering="crispEdges"/><rect fill="#000000" x="268.4" y="294.3" width="1195.6" height="24.65" shape-rendering="crispEdges"/><rect fill="#000000" x="1464" y="294.3" width="0" height="24.65" shape-rendering="crispEdges"/><rect fill="#ffffff" x="0" y="318.7" width="48.8" height="24.65" shape-rendering="crispEdges"/><rect fill="#ffffff" x="48.8" y="318.7" width="97.6" height="24.65" shape-rendering="crispEdges"/><rect fill="#ffffff" x="146.4" y="318.7" width="122" height="24.65" shape-rendering="crispEdges"/><rect fill="#ffffff" x="268.4" y="318.7" width="1195.6" height="24.65" shape-rendering="crispEdges"/><rect fill="#ffffff" x="1464" y="318.7" width="0" height="24.65" shape-rendering="crispEdges"/><rect fill="#000000" x="0" y="343.1" width="48.8" height="24.65" shape-rendering="crispEdges"/><rect fill="#000000" x="48.8" y="343.1" width="97.6" height="24.65" shape-rendering="crispEdges"/><rect fill="#000000" x="146.4" y="343.1" width="122" height="24.65" shape-rendering="crispEdges"/><rect fill="#000000" x="268.4" y="343.1" width="1195.6" height="24.65" shape-rendering="crispEdges"/><rect fill="#000000" x="1464" y="343.1" width="0" height="24.65" shape-rendering="crispEdges"/><rect fill="#000000" x="0" y="367.5" width="109.8" height="24.65" shape-rendering="crispEdges"/><rect fill="#ffffff" x="109.8" y="367.5" width="12.2" height="24.65" shape-rendering="crispEdges"/><rect fill="#ffffff" x="122" y="367.5" width="1329.8" height="24.65" shape-rendering="crispEdges"/><rect fill="#ffffff" x="1451.8" y="367.5" width="12.2" height="24.65" shape-rendering="crispEdges"/><rect fill="#000000" x="0" y="391.9" width="1464" height="24.65" shape-rendering="crispEdges"/><rect fill="#000000" x="0" y="416.3" width="1464" height="24.65" shape-rendering="crispEdges"/><rect fill="#000000" x="0" y="440.7" width="1464" height="24.65" shape-rendering="crispEdges"/><rect fill="#000000" x="0" y="465.1" width="1464" height="24.65" shape-rendering="crispEdges"/><rect fill="#000000" x="0" y="489.5" width="1464" height="24.65" shape-rendering="crispEdges"/><rect fill="#000000" x="0" y="513.9" width="1464" height="24.65" shape-rendering="crispEdges"/><rect fill="#000000" x="0" y="538.3" width="1464" height="24.65" shape-rendering="crispEdges"/><rect fill="#000000" x="0" y="562.7" width="1464" height="24.65" shape-rendering="crispEdges"/><rect fill="#000000" x="0" y="587.1" width="1464" height="24.65" shape-rendering="crispEdges"/><rect fill="#000000" x="0" y="611.5" width="1464" height="24.65" shape-rendering="crispEdges"/><rect fill="#000000" x="0" y="635.9" width="1464" height="24.65" shape-rendering="crispEdges"/><rect fill="#000000" x="0" y="660.3" width="1464" height="24.65" shape-rendering="crispEdges"/><rect fill="#000000" x="0" y="684.7" width="1464" height="24.65" shape-rendering="crispEdges"/><rect fill="#000000" x="0" y="709.1" width="1464" height="24.65" shape-rendering="crispEdges"/><rect fill="#000000" x="0" y="733.5" width="1464" height="24.65" shape-rendering="crispEdges"/><rect fill="#000000" x="0" y="757.9" width="1464" height="24.65" shape-rendering="crispEdges"/><rect fill="#000000" x="0" y="782.3" width="1464" height="24.65" shape-rendering="crispEdges"/><rect fill="#000000" x="0" y="806.7" width="1464" height="24.65" shape-rendering="crispEdges"/><rect fill="#000000" x="0" y="831.1" width="1464" height="24.65" shape-rendering="crispEdges"/><rect fill="#000000" x="0" y="855.5" width="1464" height="24.65" shape-rendering="crispEdges"/><rect fill="#000000" x="0" y="879.9" width="1464" height="24.65" shape-rendering="crispEdges"/><rect fill="#000000" x="0" y="904.3" width="1464" height="24.65" shape-rendering="crispEdges"/><rect fill="#000000" x="0" y="928.7" width="488" height="24.65" shape-rendering="crispEdges"/><rect fill="#000000" x="488" y="928.7" width="488" height="24.65" shape-rendering="crispEdges"/><rect fill="#000000" x="976" y="928.7" width="488" height="24.65" shape-rendering="crispEdges"/><rect fill="#000000" x="0" y="953.1" width="378.2" height="24.65" shape-rendering="crispEdges"/><rect fill="#000000" x="378.2" y="953.1" width="695.4" height="24.65" shape-rendering="crispEdges"/><rect fill="#000000" x="1073.6" y="953.1" width="390.4" height="24.65" shape-rendering="crispEdges"/>
    <g class="terminal-ID-matrix">
    <text class="terminal-ID-r1" x="0" y="20" textLength="268.4" clip-path="url(#terminal-ID-line-0)">Step&#160;0&#160;·&#160;teacher&#160;track</text><text class="terminal-ID-r2" x="1464" y="20" textLength="12.2" clip-path="url(#terminal-ID-line-0)">
</text><text class="terminal-ID-r3" x="12.2" y="44.4" textLength="207.4" clip-path="url(#terminal-ID-line-1)">DECISION&#160;BOUNDARY</text><text class="terminal-ID-r2" x="1464" y="44.4" textLength="12.2" clip-path="url(#terminal-ID-line-1)">
</text><text class="terminal-ID-r3" x="12.2" y="68.8" textLength="85.4" clip-path="url(#terminal-ID-line-2)">context</text><text class="terminal-ID-r2" x="1464" y="68.8" textLength="12.2" clip-path="url(#terminal-ID-line-2)">
</text><text class="terminal-ID-r2" x="1464" y="93.2" textLength="12.2" clip-path="url(#terminal-ID-line-3)">
</text><text class="terminal-ID-r2" x="1464" y="117.6" textLength="12.2" clip-path="url(#terminal-ID-line-4)">
</text><text class="terminal-ID-r2" x="1464" y="142" textLength="12.2" clip-path="url(#terminal-ID-line-5)">
</text><text class="terminal-ID-r2" x="1464" y="166.4" textLength="12.2" clip-path="url(#terminal-ID-line-6)">
</text><text class="terminal-ID-r2" x="1464" y="190.8" textLength="12.2" clip-path="url(#terminal-ID-line-7)">
</text><text class="terminal-ID-r4" x="0" y="215.2" textLength="1464" clip-path="url(#terminal-ID-line-8)">────────────────────────────────────────────────────────────────────────────────────────────────────────────────────────</text><text class="terminal-ID-r2" x="1464" y="215.2" textLength="12.2" clip-path="url(#terminal-ID-line-8)">
</text><text class="terminal-ID-r3" x="12.2" y="239.6" textLength="292.8" clip-path="url(#terminal-ID-line-9)">READY&#160;·&#160;sampled&#160;proposal</text><text class="terminal-ID-r4" x="305" y="239.6" textLength="805.2" clip-path="url(#terminal-ID-line-9)">&#160;·&#160;rank&#160;1&#160;·&#160;exact&#160;&#x27;&#160;alpha&#x27;&#160;·&#160;token&#160;2&#160;·&#160;raw&#160;80.00%&#160;·&#160;decoder&#160;80.00%</text><text class="terminal-ID-r2" x="1464" y="239.6" textLength="12.2" clip-path="url(#terminal-ID-line-9)">
</text><text class="terminal-ID-r2" x="1464" y="264" textLength="12.2" clip-path="url(#terminal-ID-line-10)">
</text><text class="terminal-ID-r3" x="0" y="288.4" textLength="122" clip-path="url(#terminal-ID-line-11)">Candidates</text><text class="terminal-ID-r2" x="1464" y="288.4" textLength="12.2" clip-path="url(#terminal-ID-line-11)">
</text><text class="terminal-ID-r1" x="48.8" y="312.8" textLength="97.6" clip-path="url(#terminal-ID-line-12)">&#160;rank&#160;&#160;&#160;</text><text class="terminal-ID-r1" x="146.4" y="312.8" textLength="122" clip-path="url(#terminal-ID-line-12)">&#160;token-id&#160;</text><text class="terminal-ID-r1" x="268.4" y="312.8" textLength="1195.6" clip-path="url(#terminal-ID-line-12)">&#160;text&#160;&#160;&#160;&#160;&#160;&#160;&#160;&#160;&#160;&#160;&#160;&#160;&#160;&#160;&#160;&#160;&#160;&#160;&#160;&#160;&#160;&#160;&#160;&#160;&#160;&#160;&#160;&#160;&#160;&#160;&#160;&#160;&#160;&#160;&#160;&#160;&#160;&#160;&#160;&#160;&#160;&#160;&#160;&#160;&#160;&#160;&#160;&#160;&#160;&#160;&#160;&#160;&#160;&#160;&#160;&#160;&#160;&#160;&#160;&#160;&#160;&#160;&#160;&#160;&#160;&#160;&#160;&#160;&#160;&#160;&#160;&#160;&#160;&#160;&#160;&#160;&#160;&#160;&#160;&#160;&#160;&#160;&#160;&#160;&#160;&#160;&#160;&#160;&#160;&#160;&#160;&#160;&#160;</text><text class="terminal-ID-r2" x="1464" y="312.8" textLength="12.2" clip-path="url(#terminal-ID-line-12)">
</text><text class="terminal-ID-r5" x="0" y="337.2" textLength="48.8" clip-path="url(#terminal-ID-line-13)">&#160;▶&#160;&#160;</text><text class="terminal-ID-r5" x="48.8" y="337.2" textLength="97.6" clip-path="url(#terminal-ID-line-13)">&#160;&#160;&#160;&#160;&#160;1&#160;&#160;</text><text class="terminal-ID-r5" x="146.4" y="337.2" textLength="122" clip-path="url(#terminal-ID-line-13)">&#160;2&#160;&#160;&#160;&#160;&#160;&#160;&#160;&#160;</text><text class="terminal-ID-r5" x="268.4" y="337.2" textLength="1195.6" clip-path="url(#terminal-ID-line-13)">&#160;&#x27;&#160;alpha&#x27;&#160;&#160;&#160;&#160;&#160;&#160;&#160;&#160;&#160;&#160;&#160;&#160;&#160;&#160;&#160;&#160;&#160;&#160;&#160;&#160;&#160;&#160;&#160;&#160;&#160;&#160;&#160;&#160;&#160;&#160;&#160;&#160;&#160;&#160;&#160;&#160;&#160;&#160;&#160;&#160;&#160;&#160;&#160;&#160;&#160;&#160;&#160;&#160;&#160;&#160;&#160;&#160;&#160;&#160;&#160;&#160;&#160;&#160;&#160;&#160;&#160;&#160;&#160;&#160;&#160;&#160;&#160;&#160;&#160;&#160;&#160;&#160;&#160;&#160;&#160;&#160;&#160;&#160;&#160;&#160;&#160;&#160;&#160;&#160;&#160;&#160;&#160;&#160;&#160;</text><text class="terminal-ID-r2" x="1464" y="337.2" textLength="12.2" clip-path="url(#terminal-ID-line-13)">
</text><text class="terminal-ID-r4" x="48.8" y="361.6" textLength="97.6" clip-path="url(#terminal-ID-line-14)">&#160;&#160;&#160;&#160;&#160;2&#160;&#160;</text><text class="terminal-ID-r4" x="146.4" y="361.6" textLength="122" clip-path="url(#terminal-ID-line-14)">&#160;3&#160;&#160;&#160;&#160;&#160;&#160;&#160;&#160;</text><text class="terminal-ID-r4" x="268.4" y="361.6" textLength="1195.6" clip-path="url(#terminal-ID-line-14)">&#160;&#x27;&#160;beta&#x27;&#160;&#160;&#160;&#160;&#160;&#160;&#160;&#160;&#160;&#160;&#160;&#160;&#160;&#160;&#160;&#160;&#160;&#160;&#160;&#160;&#160;&#160;&#160;&#160;&#160;&#160;&#160;&#160;&#160;&#160;&#160;&#160;&#160;&#160;&#160;&#160;&#160;&#160;&#160;&#160;&#160;&#160;&#160;&#160;&#160;&#160;&#160;&#160;&#160;&#160;&#160;&#160;&#160;&#160;&#160;&#160;&#160;&#160;&#160;&#160;&#160;&#160;&#160;&#160;&#160;&#160;&#160;&#160;&#160;&#160;&#160;&#160;&#160;&#160;&#160;&#160;&#160;&#160;&#160;&#160;&#160;&#160;&#160;&#160;&#160;&#160;&#160;&#160;&#160;&#160;</text><text class="terminal-ID-r2" x="1464" y="361.6" textLength="12.2" clip-path="url(#terminal-ID-line-14)">
</text><text class="terminal-ID-r4" x="0" y="386" textLength="109.8" clip-path="url(#terminal-ID-line-15)">Command&#160;&gt;</text><text class="terminal-ID-r2" x="1464" y="386" textLength="12.2" clip-path="url(#terminal-ID-line-15)">
</text><text class="terminal-ID-r2" x="1464" y="410.4" textLength="12.2" clip-path="url(#terminal-ID-line-16)">
</text><text class="terminal-ID-r2" x="1464" y="434.8" textLength="12.2" clip-path="url(#terminal-ID-line-17)">
</text><text class="terminal-ID-r2" x="1464" y="459.2" textLength="12.2" clip-path="url(#terminal-ID-line-18)">
</text><text class="terminal-ID-r2" x="1464" y="483.6" textLength="12.2" clip-path="url(#terminal-ID-line-19)">
</text><text class="terminal-ID-r2" x="1464" y="508" textLength="12.2" clip-path="url(#terminal-ID-line-20)">
</text><text class="terminal-ID-r2" x="1464" y="532.4" textLength="12.2" clip-path="url(#terminal-ID-line-21)">
</text><text class="terminal-ID-r2" x="1464" y="556.8" textLength="12.2" clip-path="url(#terminal-ID-line-22)">
</text><text class="terminal-ID-r2" x="1464" y="581.2" textLength="12.2" clip-path="url(#terminal-ID-line-23)">
</text><text class="terminal-ID-r2" x="1464" y="605.6" textLength="12.2" clip-path="url(#terminal-ID-line-24)">
</text><text class="terminal-ID-r2" x="1464" y="630" textLength="12.2" clip-path="url(#terminal-ID-line-25)">
</text><text class="terminal-ID-r2" x="1464" y="654.4" textLength="12.2" clip-path="url(#terminal-ID-line-26)">
</text><text class="terminal-ID-r2" x="1464" y="678.8" textLength="12.2" clip-path="url(#terminal-ID-line-27)">
</text><text class="terminal-ID-r2" x="1464" y="703.2" textLength="12.2" clip-path="url(#terminal-ID-line-28)">
</text><text class="terminal-ID-r2" x="1464" y="727.6" textLength="12.2" clip-path="url(#terminal-ID-line-29)">
</text><text class="terminal-ID-r2" x="1464" y="752" textLength="12.2" clip-path="url(#terminal-ID-line-30)">
</text><text class="terminal-ID-r2" x="1464" y="776.4" textLength="12.2" clip-path="url(#terminal-ID-line-31)">
</text><text class="terminal-ID-r2" x="1464" y="800.8" textLength="12.2" clip-path="url(#terminal-ID-line-32)">
</text><text class="terminal-ID-r2" x="1464" y="825.2" textLength="12.2" clip-path="url(#terminal-ID-line-33)">
</text><text class="terminal-ID-r2" x="1464" y="849.6" textLength="12.2" clip-path="url(#terminal-ID-line-34)">
</text><text class="terminal-ID-r2" x="1464" y="874" textLength="12.2" clip-path="url(#terminal-ID-line-35)">
</text><text class="terminal-ID-r2" x="1464" y="898.4" textLength="12.2" clip-path="url(#terminal-ID-line-36)">
</text><text class="terminal-ID-r2" x="1464" y="922.8" textLength="12.2" clip-path="url(#terminal-ID-line-37)">
</text><text class="terminal-ID-r4" x="488" y="947.2" textLength="488" clip-path="url(#terminal-ID-line-38)">Tab&#160;cycles&#160;·&#160;Enter&#160;commits&#160;·&#160;Ctrl+G&#160;rank</text><text class="terminal-ID-r2" x="1464" y="947.2" textLength="12.2" clip-path="url(#terminal-ID-line-38)">
</text><text class="terminal-ID-r4" x="378.2" y="971.6" textLength="695.4" clip-path="url(#terminal-ID-line-39)">PgUp/PgDn&#160;context&#160;·&#160;Ctrl+K&#160;menu&#160;·&#160;Ctrl+L&#160;output&#160;·&#160;F1&#160;help</text>
    </g>
    </g>
</svg>
